<svg width="184" height="16" viewBox="0 0 184 16" fill="none" xmlns="http://www.w3.org/2000/svg">
<mask id="mask0_1051_354" style="mask-type:luminance" maskUnits="userSpaceOnUse" x="0" y="0" width="184" height="16">
<path d="M0 0H184V16H0V0Z" fill="white"/>
</mask>
<g mask="url(#mask0_1051_354)">
<path d="M150.539 16C141.729 16 137.03 12.9814 133.253 10.5549C129.812 8.34457 127.093 6.59704 121.269 6.59704C115.444 6.59704 112.726 8.34457 109.284 10.5549C105.507 12.9814 100.811 16 91.9985 16C83.1893 16 78.4899 12.9814 74.7159 10.5549C71.2715 8.34457 68.5528 6.59704 62.7284 6.59704C56.9041 6.59704 54.1884 8.34457 50.747 10.5549C46.97 12.9814 42.2706 16 33.4614 16C24.6523 16 19.9529 12.9814 16.1758 10.5549C12.7344 8.34457 10.0157 6.59704 4.19137 6.59704C1.87795 6.59704 0 5.12177 0 3.29937C0 1.47698 1.87795 0 4.19137 0C13.0035 0 17.6999 3.01861 21.477 5.44507C24.9184 7.65543 27.637 9.40296 33.4614 9.40296C39.2858 9.40296 42.0044 7.65543 45.4458 5.44507C49.2229 3.01861 53.9193 0 62.7284 0C71.5406 0 76.24 3.01861 80.0141 5.44507C83.4585 7.65543 86.1741 9.40296 91.9985 9.40296C97.8259 9.40296 100.542 7.65543 103.986 5.44507C107.76 3.01861 112.459 0 121.269 0C130.081 0 134.78 3.01861 138.554 5.44507C141.996 7.65543 144.714 9.40296 150.539 9.40296C156.363 9.40296 159.082 7.65543 162.526 5.44507C166.3 3.01861 170.999 0 179.812 0C182.125 0 184 1.47698 184 3.29937C184 5.12177 182.125 6.59704 179.812 6.59704C173.987 6.59704 171.269 8.34457 167.824 10.5549C164.05 12.9814 159.351 16 150.539 16Z" fill="#CC143C"/>
</g>
</svg>
